<svg width="121" height="121" viewBox="0 0 121 121" fill="none" xmlns="http://www.w3.org/2000/svg">
<g filter="url(#filter0_d_19_7)">
<circle cx="60.5" cy="56.5" r="56.5" fill="black"/>
</g>
<ellipse cx="61" cy="42.5" rx="26" ry="25.5" fill="#D9D9D9"/>
<path d="M66.835 40.642C68.9193 41.5793 69.9615 43.4972 69.9615 46.3955C69.9615 48.6772 69.4312 50.3483 68.3705 51.409C67.3098 52.4697 65.6325 53 63.3385 53H59.1205C56.8265 53 55.143 52.4697 54.07 51.409C53.0093 50.3483 52.479 48.6772 52.479 46.3955C52.479 43.4602 53.5643 41.5238 55.735 40.5865C54.0823 39.5875 53.256 37.8547 53.256 35.388C53.256 33.242 53.7617 31.6695 54.773 30.6705C55.7843 29.6592 57.3692 29.1535 59.5275 29.1535H63.1165C65.2748 29.1535 66.8535 29.6592 67.8525 30.6705C68.8638 31.6695 69.3695 33.242 69.3695 35.388C69.3695 37.9163 68.5247 39.6677 66.835 40.642ZM59.5275 31.096C57.9118 31.096 56.7833 31.4167 56.142 32.058C55.513 32.687 55.1985 33.797 55.1985 35.388C55.1985 37.0407 55.513 38.1938 56.142 38.8475C56.771 39.4888 57.8563 39.8095 59.398 39.8095L63.6715 39.791C64.6335 39.791 65.3858 39.6307 65.9285 39.31C66.4835 38.977 66.872 38.4898 67.094 37.8485C67.316 37.1948 67.427 36.3747 67.427 35.388C67.427 33.797 67.1125 32.687 66.4835 32.058C65.8545 31.4167 64.7322 31.096 63.1165 31.096H59.5275ZM63.3385 51.0575C65.0898 51.0575 66.3047 50.7183 66.983 50.04C67.6737 49.3493 68.019 48.1345 68.019 46.3955C68.019 44.6565 67.6737 43.4478 66.983 42.7695C66.3047 42.0912 65.0898 41.752 63.3385 41.752H59.1205C57.3568 41.752 56.1297 42.0912 55.439 42.7695C54.7607 43.4478 54.4215 44.6565 54.4215 46.3955C54.4215 48.1345 54.7607 49.3493 55.439 50.04C56.1297 50.7183 57.3568 51.0575 59.1205 51.0575H63.3385Z" fill="black"/>
<line x1="61" y1="25" x2="61" y2="56" stroke="black" stroke-width="2"/>
<defs>
<filter id="filter0_d_19_7" x="0" y="0" width="121" height="121" filterUnits="userSpaceOnUse" color-interpolation-filters="sRGB">
<feFlood flood-opacity="0" result="BackgroundImageFix"/>
<feColorMatrix in="SourceAlpha" type="matrix" values="0 0 0 0 0 0 0 0 0 0 0 0 0 0 0 0 0 0 127 0" result="hardAlpha"/>
<feOffset dy="4"/>
<feGaussianBlur stdDeviation="2"/>
<feComposite in2="hardAlpha" operator="out"/>
<feColorMatrix type="matrix" values="0 0 0 0 0 0 0 0 0 0 0 0 0 0 0 0 0 0 0.25 0"/>
<feBlend mode="normal" in2="BackgroundImageFix" result="effect1_dropShadow_19_7"/>
<feBlend mode="normal" in="SourceGraphic" in2="effect1_dropShadow_19_7" result="shape"/>
</filter>
</defs>
</svg>
